<?xml version="1.0" standalone="no"?>
<!DOCTYPE svg PUBLIC "-//W3C//DTD SVG 20010904//EN"
 "http://www.w3.org/TR/2001/REC-SVG-20010904/DTD/svg10.dtd">
<svg version="1.0" xmlns="http://www.w3.org/2000/svg"
 width="512.000000pt" height="512.000000pt" viewBox="0 0 512.000000 512.000000"
 preserveAspectRatio="xMidYMid meet">

<g transform="translate(0.000000,512.000000) scale(0.100000,-0.100000)"
fill="#000000" stroke="none">
<path d="M293 4949 c-17 -5 -41 -21 -52 -35 l-21 -27 0 -2328 0 -2329 29 -32
29 -33 2239 -3 c1231 -2 2258 0 2282 3 30 5 54 16 73 35 l28 28 0 2330 0 2329
-20 26 c-12 15 -38 31 -58 37 -48 13 -4483 12 -4529 -1z m4407 -1889 c0 -929
-4 -1690 -8 -1690 -4 0 -414 344 -910 765 -497 421 -911 769 -922 775 -25 13
-70 12 -96 -3 -11 -7 -539 -543 -1172 -1192 -634 -649 -1156 -1181 -1162
-1183 -7 -3 -10 693 -10 2107 l0 2111 2140 0 2140 0 0 -1690z m-837 -1263
l837 -709 0 -359 0 -359 -2067 0 -2068 0 106 108 c58 59 566 578 1128 1155
l1022 1047 102 -86 c56 -48 479 -406 940 -797z"/>
<path d="M1438 4126 c-224 -65 -393 -234 -448 -452 -71 -275 59 -567 312 -699
93 -49 148 -65 254 -72 296 -19 563 177 639 468 24 89 16 269 -15 356 -24 70
-80 160 -135 222 -51 56 -170 134 -246 161 -80 28 -286 37 -361 16z m257 -201
c257 -67 386 -350 269 -589 -98 -200 -351 -287 -554 -189 -70 34 -159 122
-193 193 -97 200 -12 451 186 551 99 51 187 61 292 34z"/>
</g>
</svg>
