<?xml version="1.0" standalone="no"?>
<!DOCTYPE svg PUBLIC "-//W3C//DTD SVG 20010904//EN"
 "http://www.w3.org/TR/2001/REC-SVG-20010904/DTD/svg10.dtd">
<svg version="1.0" xmlns="http://www.w3.org/2000/svg"
 width="1024.000000pt" height="1024.000000pt" viewBox="0 0 1024.000000 1024.000000"
 preserveAspectRatio="xMidYMid meet">

<g transform="translate(0.000000,1024.000000) scale(0.100000,-0.100000)"
fill="#000000" stroke="none">
<path d="M5072 8802 c-18 -9 -870 -667 -1892 -1462 -1221 -949 -1865 -1456
-1876 -1476 -12 -22 -15 -44 -11 -75 12 -91 109 -129 190 -75 19 13 844 653
1833 1422 989 768 1803 1397 1809 1397 7 0 828 -634 1826 -1410 998 -775 1824
-1415 1836 -1421 12 -7 40 -12 63 -12 34 0 48 6 76 34 28 28 34 41 34 78 -1
23 -6 53 -13 65 -16 28 -3758 2938 -3789 2947 -36 9 -50 7 -86 -12z"/>
<path d="M5095 8053 c-24 -5 -3365 -2607 -3413 -2658 l-32 -35 2 -1950 3
-1950 33 -32 32 -33 3406 0 3406 0 34 37 34 38 0 1934 0 1933 -21 27 c-12 15
-53 51 -92 80 -40 29 -785 615 -1657 1302 -872 687 -1601 1261 -1620 1276 -36
27 -80 39 -115 31z m1630 -1535 c869 -684 1593 -1252 1608 -1262 l27 -18 0
-1799 0 -1799 -3235 0 -3235 0 0 1809 0 1808 1617 1261 c1008 787 1620 1259
1627 1253 6 -4 722 -568 1591 -1253z"/>
<path d="M4241 5897 c-13 -6 -34 -25 -45 -40 -21 -28 -21 -32 -24 -928 -3
-992 -5 -949 60 -989 32 -20 48 -20 893 -20 845 0 861 0 893 20 65 40 62 -1
62 983 l0 894 -23 34 c-12 18 -34 39 -47 46 -36 18 -1734 18 -1769 0z m509
-534 c0 -349 2 -362 73 -397 66 -32 98 -18 207 89 l95 94 95 -94 c109 -107
141 -121 207 -89 71 35 73 48 73 397 l0 307 165 0 165 0 0 -755 0 -755 -705 0
-705 0 0 755 0 755 165 0 165 0 0 -307z m500 162 l0 -146 -40 32 c-32 26 -49
32 -85 32 -36 0 -53 -6 -85 -32 l-40 -32 0 146 0 145 125 0 125 0 0 -145z"/>
<path d="M2861 3727 c-13 -6 -34 -25 -45 -40 -21 -28 -21 -32 -24 -928 -3
-992 -5 -949 60 -989 32 -20 48 -20 893 -20 835 0 861 1 892 20 67 40 64 -16
61 990 l-3 910 -33 32 -32 33 -873 2 c-680 2 -877 0 -896 -10z m509 -534 c0
-349 2 -362 73 -397 66 -32 98 -18 207 89 l95 94 96 -94 c110 -107 141 -120
206 -89 71 35 73 48 73 397 l0 307 165 0 165 0 0 -755 0 -755 -705 0 -705 0 0
755 0 755 165 0 165 0 0 -307z m500 160 l0 -147 -27 26 c-59 56 -120 58 -185
7 l-38 -30 0 146 0 145 125 0 125 0 0 -147z"/>
<path d="M5621 3727 c-13 -6 -34 -25 -45 -40 -21 -28 -21 -32 -24 -928 -3
-992 -5 -949 60 -989 32 -20 48 -20 893 -20 845 0 861 0 893 20 65 40 62 0 62
975 0 949 1 925 -50 970 -22 20 -38 20 -894 22 -679 2 -876 0 -895 -10z m509
-534 c0 -349 2 -362 73 -397 66 -32 98 -18 207 89 l95 94 95 -94 c109 -107
141 -121 207 -89 71 35 73 48 73 397 l0 307 165 0 165 0 0 -755 0 -755 -705 0
-705 0 0 755 0 755 165 0 165 0 0 -307z m500 162 l0 -146 -41 33 c-32 26 -50
33 -84 33 -34 0 -52 -7 -84 -33 l-41 -33 0 146 0 145 125 0 125 0 0 -145z"/>
</g>
</svg>
